<svg xmlns="http://www.w3.org/2000/svg" width="60.326" height="88.392" viewBox="0 0 60.326 88.392">
  <g id="グループ_233" data-name="グループ 233" transform="translate(-1490.66 -3658.741)">
    <path id="パス_2210" data-name="パス 2210" d="M1525.02,3733.4c-2.953-1.005-7.5-4.26-12.635-.818-3.317,1.962-4.875.806-3.05,2.939s5.437,5.308,10.609,2.96,5.8-4.337,6.968-4.373S1525.02,3733.4,1525.02,3733.4Z" fill="#fee973"/>
    <path id="パス_2211" data-name="パス 2211" d="M1516.292,3727.6c-1.33-1.5-6.158-5.749-10.818-4.7s-5.513.7-4.307,2.573,4.556,7,11.216,5.115S1516.292,3727.6,1516.292,3727.6Z" fill="#fee973"/>
    <path id="パス_2212" data-name="パス 2212" d="M1508.576,3720.251c-2.668-1.39-4.043-6.174-7.822-6.8s-5.67-1.1-5.654.123,1.271,7.973,9.858,8.427C1508.274,3722.084,1509.95,3720.968,1508.576,3720.251Z" fill="#fee973"/>
    <path id="パス_2213" data-name="パス 2213" d="M1527.088,3733.854c-.891-3.651,3.218-6.4.47-11.4-1.544-2.635-2.244-4.153-3.4-3.25s-4.109,4.085-3.7,7.254,3.562,7.047,5.761,7.939S1527.088,3733.854,1527.088,3733.854Z" fill="#fee973"/>
    <path id="パス_2214" data-name="パス 2214" d="M1517.479,3726.256a11.193,11.193,0,0,0,.429-12.431c-1.691-1.777-5.78,1.883-5.811,5.339s4.008,9.464,4.83,9.255S1517.479,3726.256,1517.479,3726.256Z" fill="#fee973"/>
    <path id="パス_2215" data-name="パス 2215" d="M1508.434,3718.4c-.134-.389-3.213-4.473-2.719-7.486s3.459-5.052,4.25-5.864c1.058-.032,4.088,4.353,2.477,8.562S1508.967,3719.96,1508.434,3718.4Z" fill="#fee973"/>
    <path id="パス_2216" data-name="パス 2216" d="M1500.6,3710.645c-1.716-2.464-2.219-7.391-5.189-8.477s-4.32-2.048-4.292-.149-.048,7.215,4.758,8.933S1501.414,3711.809,1500.6,3710.645Z" fill="#fee973"/>
    <path id="パス_2217" data-name="パス 2217" d="M1502.454,3710.545c1.6-.853,6.019-3.067,5.457-8.521-.2-1.632-.339-2.3-1.451-1.954s-4.5,1.741-5.252,4.592c-.9,3.434.7,4.942.362,5.909-.23.654.047.838.227.722A1.907,1.907,0,0,0,1502.454,3710.545Z" fill="#fee973"/>
    <path id="パス_2218" data-name="パス 2218" d="M1534.815,3736.295c.774-1.469,3-5.416-.534-9.43-1.08-1.186-1.57-1.641-2.25-.815s-2.558,3.616-1.532,6.234c1.236,3.154,3.355,3.54,3.635,4.471.189.63.512.637.588.456A1.685,1.685,0,0,0,1534.815,3736.295Z" fill="#fee973"/>
    <path id="パス_2219" data-name="パス 2219" d="M1499.963,3701.85c1.98-.351,6.08-2.706,6.484-6.18s.186-2.992-1.337-2.722-5,1.034-5.612,4.249.112,3.724-.278,4.489c-.622,1.219-.274,1.38.1.87A3.282,3.282,0,0,1,1499.963,3701.85Z" fill="#fee973"/>
    <path id="パス_2220" data-name="パス 2220" d="M1495.745,3699.973a7.165,7.165,0,0,1-4.342-4.156c-1.125-2.3-.909-6.562.22-6.276s3.659.741,4.575,3.283.709,6.493,1.022,7.132,1.129.285.312.637S1495.745,3699.973,1495.745,3699.973Z" fill="#fee973"/>
    <path id="パス_2221" data-name="パス 2221" d="M1532.464,3738.62c-1.012,1.745-2.421,2.721-5.006,3.437s-7.055-.095-6.591-1.1a5.489,5.489,0,0,1,4.118-3.776c2.813-.487,6.953.269,7.672.07s.463-1.007.718-.2S1532.464,3738.62,1532.464,3738.62Z" fill="#fee973"/>
    <path id="パス_2222" data-name="パス 2222" d="M1497.921,3692.933c-.209-2.8,1.8-6.028,5.949-6.723,2.816-.467,2.389-.157,2.164.843s-1.2,4.018-3.228,5-3.489,1.5-4.065,1.815S1497.921,3692.933,1497.921,3692.933Z" fill="#fee973"/>
    <path id="パス_2223" data-name="パス 2223" d="M1495.237,3689.336c-1.643-1.2-3.624-3.306-2.7-6.672,1.332-2.334,1.385-3.127,1.914-2.463s3.348,2.213,3.26,5.018a21.254,21.254,0,0,1-1.215,5.808Z" fill="#fee973"/>
    <path id="パス_2224" data-name="パス 2224" d="M1499.19,3686.291c2.581-.4,6.452-.993,6.975-5.489.236-.519.078-.889-1.08-.74s-3.5.027-4.687,1.905A9.4,9.4,0,0,0,1499.19,3686.291Z" fill="#fee973"/>
    <path id="パス_2225" data-name="パス 2225" d="M1497.427,3680.154c-.6-.829-3.873-3.915-1.09-7.44.6-2.245,1.505-2.111,2.526-.672s1.452,5.508.356,7.61S1498.362,3681.441,1497.427,3680.154Z" fill="#fee973"/>
    <path id="パス_2226" data-name="パス 2226" d="M1500.97,3678.866c3.88.391,5.336-.839,6.718-2.486s1.95-1.879,1.825-2.574-3.163-.646-5.189-.041S1500.968,3677.152,1500.97,3678.866Z" fill="#fee973"/>
    <path id="パス_2227" data-name="パス 2227" d="M1510.509,3663.257c2.6.21,5.876-.87,6.689-3.436.542-.842.542-.842-1.124-1.048S1511.548,3659.255,1510.509,3663.257Z" fill="#fee973"/>
    <path id="パス_2228" data-name="パス 2228" d="M1502.514,3673.17c.968-1.785,2.459-4.375.031-7.522-1.38.316-4.883,4.272-1.635,7.313C1501.881,3674.22,1502.514,3673.17,1502.514,3673.17Z" fill="#fee973"/>
    <path id="パス_2229" data-name="パス 2229" d="M1503.684,3671.434c-21.333,40.963,20.556,60.959,23.4,62.61a40.932,40.932,0,0,0,9.22,3.6c2.92.777,11.771,4.68,13.477,6.337,2.616,2.538.309,3.8-.819,2.816-2.068-1.8-4.3-4.675-13.078-7.237-1.436-.419-3.092-.9-5-1.454-13.6-3.927-29.863-21.287-33.492-35.289s2.6-26.7,6.654-32.9c1.155-1.766,5.1-6.393,7.14-7.14A39.447,39.447,0,0,0,1503.684,3671.434Z" fill="#fee973"/>
    <path id="パス_2230" data-name="パス 2230" d="M1505.961,3661.6c-1.091.9-1.794,1.682-1.857,2.866s.946,2.808.815,3.575c-.256,1.5.419,1.081.5.442s1.441-2.632,1.6-3.727S1506.529,3661.13,1505.961,3661.6Z" fill="#fee973"/>
    <path id="パス_2231" data-name="パス 2231" d="M1504.144,3672.028c1.233,0,3.594,1.275,5.8-1.432.607-.681,1.032-.927.1-1.269S1505.281,3668.676,1504.144,3672.028Z" fill="#fee973"/>
    <path id="パス_2232" data-name="パス 2232" d="M1507.672,3667.54c2.837.6,4.725-.042,5.969-1.933-2.566-1.935-4.878.267-6.061,1.17C1506.965,3667.246,1507.672,3667.54,1507.672,3667.54Z" fill="#fee973"/>
    <path id="パス_2233" data-name="パス 2233" d="M1508.2,3664.1a2.6,2.6,0,0,1,.58-3.607c.729-.517.559-.777.957-.673s.959,1.379.479,2.469a13.839,13.839,0,0,1-1.684,2.24C1508.265,3665.283,1508.292,3664.551,1508.2,3664.1Z" fill="#fee973"/>
  </g>
</svg>
