<svg xmlns="http://www.w3.org/2000/svg" width="60.326" height="88.392" viewBox="0 0 60.326 88.392">
  <g id="グループ_232" data-name="グループ 232" transform="translate(-1980.014 -3658.741)">
    <path id="パス_2186" data-name="パス 2186" d="M2005.98,3733.4c2.953-1.005,7.5-4.26,12.635-.818,3.317,1.962,4.875.806,3.05,2.939s-5.437,5.308-10.609,2.96-5.8-4.337-6.968-4.373S2005.98,3733.4,2005.98,3733.4Z" fill="#fee973"/>
    <path id="パス_2187" data-name="パス 2187" d="M2014.708,3727.6c1.33-1.5,6.158-5.749,10.818-4.7s5.513.7,4.307,2.573-4.556,7-11.216,5.115S2014.708,3727.6,2014.708,3727.6Z" fill="#fee973"/>
    <path id="パス_2188" data-name="パス 2188" d="M2022.424,3720.251c2.668-1.39,4.043-6.174,7.822-6.8s5.67-1.1,5.654.123-1.271,7.973-9.858,8.427C2022.726,3722.084,2021.05,3720.968,2022.424,3720.251Z" fill="#fee973"/>
    <path id="パス_2189" data-name="パス 2189" d="M2003.912,3733.854c.891-3.651-3.218-6.4-.47-11.4,1.544-2.635,2.244-4.153,3.4-3.25s4.109,4.085,3.7,7.254-3.562,7.047-5.761,7.939S2003.912,3733.854,2003.912,3733.854Z" fill="#fee973"/>
    <path id="パス_2190" data-name="パス 2190" d="M2013.521,3726.256a11.193,11.193,0,0,1-.429-12.431c1.691-1.777,5.78,1.883,5.811,5.339s-4.008,9.464-4.83,9.255S2013.521,3726.256,2013.521,3726.256Z" fill="#fee973"/>
    <path id="パス_2191" data-name="パス 2191" d="M2022.566,3718.4c.134-.389,3.213-4.473,2.719-7.486s-3.459-5.052-4.25-5.864c-1.058-.032-4.088,4.353-2.477,8.562S2022.033,3719.96,2022.566,3718.4Z" fill="#fee973"/>
    <path id="パス_2192" data-name="パス 2192" d="M2030.4,3710.645c1.716-2.464,2.219-7.391,5.189-8.477s4.32-2.048,4.292-.149.048,7.215-4.758,8.933S2029.586,3711.809,2030.4,3710.645Z" fill="#fee973"/>
    <path id="パス_2193" data-name="パス 2193" d="M2028.546,3710.545c-1.6-.853-6.019-3.067-5.457-8.521.2-1.632.339-2.3,1.451-1.954s4.5,1.741,5.252,4.592c.9,3.434-.7,4.942-.362,5.909.23.654-.047.838-.227.722A1.907,1.907,0,0,1,2028.546,3710.545Z" fill="#fee973"/>
    <path id="パス_2194" data-name="パス 2194" d="M1996.185,3736.295c-.774-1.469-3-5.416.534-9.43,1.08-1.186,1.57-1.641,2.25-.815s2.558,3.616,1.532,6.234c-1.236,3.154-3.355,3.54-3.635,4.471-.189.63-.512.637-.588.456A1.685,1.685,0,0,1,1996.185,3736.295Z" fill="#fee973"/>
    <path id="パス_2195" data-name="パス 2195" d="M2031.037,3701.85c-1.98-.351-6.08-2.706-6.484-6.18s-.186-2.992,1.337-2.722,5,1.034,5.612,4.249-.112,3.724.278,4.489c.622,1.219.274,1.38-.1.87A3.282,3.282,0,0,0,2031.037,3701.85Z" fill="#fee973"/>
    <path id="パス_2196" data-name="パス 2196" d="M2035.255,3699.973a7.165,7.165,0,0,0,4.342-4.156c1.125-2.3.909-6.562-.22-6.276s-3.659.741-4.575,3.283-.709,6.493-1.022,7.132-1.129.285-.312.637S2035.255,3699.973,2035.255,3699.973Z" fill="#fee973"/>
    <path id="パス_2197" data-name="パス 2197" d="M1998.536,3738.62c1.012,1.745,2.421,2.721,5.006,3.437s7.055-.095,6.591-1.1a5.489,5.489,0,0,0-4.118-3.776c-2.813-.487-6.953.269-7.672.07s-.463-1.007-.718-.2S1998.536,3738.62,1998.536,3738.62Z" fill="#fee973"/>
    <path id="パス_2198" data-name="パス 2198" d="M2033.079,3692.933c.209-2.8-1.8-6.028-5.949-6.723-2.816-.467-2.389-.157-2.164.843s1.2,4.018,3.228,5,3.489,1.5,4.065,1.815S2033.079,3692.933,2033.079,3692.933Z" fill="#fee973"/>
    <path id="パス_2199" data-name="パス 2199" d="M2035.763,3689.336c1.643-1.2,3.624-3.306,2.7-6.672-1.332-2.334-1.385-3.127-1.914-2.463s-3.348,2.213-3.26,5.018a21.254,21.254,0,0,0,1.215,5.808Z" fill="#fee973"/>
    <path id="パス_2200" data-name="パス 2200" d="M2031.81,3686.291c-2.581-.4-6.452-.993-6.975-5.489-.236-.519-.078-.889,1.08-.74s3.5.027,4.687,1.905A9.4,9.4,0,0,1,2031.81,3686.291Z" fill="#fee973"/>
    <path id="パス_2201" data-name="パス 2201" d="M2033.573,3680.154c.6-.829,3.873-3.915,1.09-7.44-.6-2.245-1.505-2.111-2.526-.672s-1.452,5.508-.356,7.61S2032.638,3681.441,2033.573,3680.154Z" fill="#fee973"/>
    <path id="パス_2202" data-name="パス 2202" d="M2030.03,3678.866c-3.88.391-5.336-.839-6.718-2.486s-1.95-1.879-1.825-2.574,3.163-.646,5.189-.041S2030.032,3677.152,2030.03,3678.866Z" fill="#fee973"/>
    <path id="パス_2203" data-name="パス 2203" d="M2020.491,3663.257c-2.6.21-5.876-.87-6.689-3.436-.542-.842-.542-.842,1.124-1.048S2019.452,3659.255,2020.491,3663.257Z" fill="#fee973"/>
    <path id="パス_2204" data-name="パス 2204" d="M2028.486,3673.17c-.968-1.785-2.459-4.375-.031-7.522,1.38.316,4.883,4.272,1.635,7.313C2029.119,3674.22,2028.486,3673.17,2028.486,3673.17Z" fill="#fee973"/>
    <path id="パス_2205" data-name="パス 2205" d="M2027.316,3671.434c21.333,40.963-20.556,60.959-23.4,62.61a40.932,40.932,0,0,1-9.22,3.6c-2.92.777-11.771,4.68-13.477,6.337-2.616,2.538-.309,3.8.819,2.816,2.068-1.8,4.3-4.675,13.078-7.237,1.436-.419,3.092-.9,5-1.454,13.6-3.927,29.863-21.287,33.492-35.289s-2.6-26.7-6.654-32.9c-1.155-1.766-5.1-6.393-7.14-7.14A39.447,39.447,0,0,1,2027.316,3671.434Z" fill="#fee973"/>
    <path id="パス_2206" data-name="パス 2206" d="M2025.039,3661.6c1.091.9,1.794,1.682,1.857,2.866s-.946,2.808-.815,3.575c.256,1.5-.419,1.081-.5.442s-1.441-2.632-1.6-3.727S2024.471,3661.13,2025.039,3661.6Z" fill="#fee973"/>
    <path id="パス_2207" data-name="パス 2207" d="M2026.856,3672.028c-1.233,0-3.594,1.275-5.8-1.432-.607-.681-1.032-.927-.1-1.269S2025.719,3668.676,2026.856,3672.028Z" fill="#fee973"/>
    <path id="パス_2208" data-name="パス 2208" d="M2023.328,3667.54c-2.837.6-4.725-.042-5.969-1.933,2.566-1.935,4.878.267,6.061,1.17C2024.035,3667.246,2023.328,3667.54,2023.328,3667.54Z" fill="#fee973"/>
    <path id="パス_2209" data-name="パス 2209" d="M2022.8,3664.1a2.6,2.6,0,0,0-.58-3.607c-.729-.517-.559-.777-.957-.673s-.959,1.379-.479,2.469a13.839,13.839,0,0,0,1.684,2.24C2022.735,3665.283,2022.708,3664.551,2022.8,3664.1Z" fill="#fee973"/>
  </g>
</svg>
